<?xml version="1.0" encoding="utf-8" standalone="no"?>
<!DOCTYPE svg PUBLIC "-//W3C//DTD SVG 1.1//EN"
  "http://www.w3.org/Graphics/SVG/1.1/DTD/svg11.dtd">
<svg xmlns:xlink="http://www.w3.org/1999/xlink" width="460.8pt" height="345.6pt" viewBox="0 0 460.8 345.6" xmlns="http://www.w3.org/2000/svg" version="1.1">
 <metadata>
  <rdf:RDF xmlns:dc="http://purl.org/dc/elements/1.1/" xmlns:cc="http://creativecommons.org/ns#" xmlns:rdf="http://www.w3.org/1999/02/22-rdf-syntax-ns#">
   <cc:Work>
    <dc:type rdf:resource="http://purl.org/dc/dcmitype/StillImage"/>
    <dc:date>2023-10-23T08:07:20.728840</dc:date>
    <dc:format>image/svg+xml</dc:format>
    <dc:creator>
     <cc:Agent>
      <dc:title>Matplotlib v3.8.0, https://matplotlib.org/</dc:title>
     </cc:Agent>
    </dc:creator>
   </cc:Work>
  </rdf:RDF>
 </metadata>
 <defs>
  <style type="text/css">*{stroke-linejoin: round; stroke-linecap: butt}</style>
 </defs>
 <g id="figure_1">
  <g id="axes_1">
   <g id="LineCollection_1">
    <path d="M 238.375464 126.525762 
L 241.715126 129.658595 
" clip-path="url(#p73ebcb5817)" style="fill: none; stroke: #1f77b4; stroke-width: 1.5"/>
    <path d="M 240.237911 127.076494 
L 238.464473 125.826172 
" clip-path="url(#p73ebcb5817)" style="fill: none; stroke: #1f77b4; stroke-width: 1.5"/>
    <path d="M 238.852467 125.431518 
L 240.434718 127.065369 
" clip-path="url(#p73ebcb5817)" style="fill: none; stroke: #1f77b4; stroke-width: 1.5"/>
    <path d="M 241.505695 129.683578 
L 238.627945 125.662481 
" clip-path="url(#p73ebcb5817)" style="fill: none; stroke: #1f77b4; stroke-width: 1.5"/>
    <path d="M 238.400613 126.497981 
L 241.405639 129.291331 
" clip-path="url(#p73ebcb5817)" style="fill: none; stroke: #1f77b4; stroke-width: 1.5"/>
    <path d="M 241.850046 129.907254 
L 238.692792 125.592151 
" clip-path="url(#p73ebcb5817)" style="fill: none; stroke: #1f77b4; stroke-width: 1.5"/>
    <path d="M 241.034264 125.156444 
L 239.561043 126.031631 
" clip-path="url(#p73ebcb5817)" style="fill: none; stroke: #1f77b4; stroke-width: 1.5"/>
    <path d="M 239.79952 125.908342 
L 239.71268 125.71056 
" clip-path="url(#p73ebcb5817)" style="fill: none; stroke: #1f77b4; stroke-width: 1.5"/>
    <path d="M 240.789623 124.923855 
L 240.377959 124.958857 
" clip-path="url(#p73ebcb5817)" style="fill: none; stroke: #1f77b4; stroke-width: 1.5"/>
    <path d="M 20.945455 329.757145 
L 48.458565 306.736125 
L 72.932871 322.084035 
L 402.333641 260.599944 
L 439.854545 239.418886 
L 435.061634 191.365061 
L 417.078524 142.992508 
" clip-path="url(#p73ebcb5817)" style="fill: none; stroke: #1f77b4; stroke-width: 1.5"/>
    <path d="M 313.741307 240.902448 
L 350.20879 205.361676 
" clip-path="url(#p73ebcb5817)" style="fill: none; stroke: #1f77b4; stroke-width: 1.5"/>
    <path d="M 313.741307 240.902448 
L 340.427096 223.91828 
" clip-path="url(#p73ebcb5817)" style="fill: none; stroke: #1f77b4; stroke-width: 1.5"/>
    <path d="M 300.638886 179.412502 
L 320.017598 204.342706 
L 350.067164 205.303577 
" clip-path="url(#p73ebcb5817)" style="fill: none; stroke: #1f77b4; stroke-width: 1.5"/>
    <path d="M 313.713938 241.596183 
L 308.534414 251.422453 
L 277.355683 259.149041 
" clip-path="url(#p73ebcb5817)" style="fill: none; stroke: #1f77b4; stroke-width: 1.5"/>
    <path d="M 203.31024 180.254898 
L 203.205549 180.282874 
" clip-path="url(#p73ebcb5817)" style="fill: none; stroke: #1f77b4; stroke-width: 1.5"/>
    <path d="M 204.258378 180.358279 
L 204.263654 180.285476 
" clip-path="url(#p73ebcb5817)" style="fill: none; stroke: #1f77b4; stroke-width: 1.5"/>
    <path d="M 204.15127 180.077805 
L 204.130066 180.371486 
" clip-path="url(#p73ebcb5817)" style="fill: none; stroke: #1f77b4; stroke-width: 1.5"/>
    <path d="M 202.115637 179.352842 
L 202.099807 179.774886 
" clip-path="url(#p73ebcb5817)" style="fill: none; stroke: #1f77b4; stroke-width: 1.5"/>
    <path d="M 203.73724 179.723293 
L 203.03754 179.694146 
" clip-path="url(#p73ebcb5817)" style="fill: none; stroke: #1f77b4; stroke-width: 1.5"/>
    <path d="M 204.57186 180.077805 
L 204.559975 180.39263 
" clip-path="url(#p73ebcb5817)" style="fill: none; stroke: #1f77b4; stroke-width: 1.5"/>
    <path d="M 203.98193 180.125429 
L 204.147473 180.134472 
" clip-path="url(#p73ebcb5817)" style="fill: none; stroke: #1f77b4; stroke-width: 1.5"/>
    <path d="M 204.515002 180.192896 
L 204.566928 180.195433 
" clip-path="url(#p73ebcb5817)" style="fill: none; stroke: #1f77b4; stroke-width: 1.5"/>
    <path d="M 203.029601 179.819842 
L 202.836492 179.811905 
" clip-path="url(#p73ebcb5817)" style="fill: none; stroke: #1f77b4; stroke-width: 1.5"/>
    <path d="M 204.134751 180.307857 
L 204.598291 180.330498 
" clip-path="url(#p73ebcb5817)" style="fill: none; stroke: #1f77b4; stroke-width: 1.5"/>
    <path d="M 202.105232 179.648995 
L 202.844431 179.686209 
" clip-path="url(#p73ebcb5817)" style="fill: none; stroke: #1f77b4; stroke-width: 1.5"/>
    <path d="M 203.630132 179.511588 
L 202.114354 179.438851 
" clip-path="url(#p73ebcb5817)" style="fill: none; stroke: #1f77b4; stroke-width: 1.5"/>
    <path d="M 204.385358 180.270968 
L 204.378751 180.38736 
" clip-path="url(#p73ebcb5817)" style="fill: none; stroke: #1f77b4; stroke-width: 1.5"/>
    <path d="M 99.58276 253.51888 
L 99.042193 236.238363 
" clip-path="url(#p73ebcb5817)" style="fill: none; stroke: #1f77b4; stroke-width: 1.5"/>
    <path d="M 214.315682 141.951809 
L 221.652248 145.540778 
" clip-path="url(#p73ebcb5817)" style="fill: none; stroke: #1f77b4; stroke-width: 1.5"/>
    <path d="M 208.930029 165.599421 
L 203.630132 179.511588 
" clip-path="url(#p73ebcb5817)" style="fill: none; stroke: #1f77b4; stroke-width: 1.5"/>
    <path d="M 207.257338 156.353031 
L 208.811925 153.658832 
" clip-path="url(#p73ebcb5817)" style="fill: none; stroke: #1f77b4; stroke-width: 1.5"/>
    <path d="M 216.770869 139.124042 
L 219.478341 138.323349 
" clip-path="url(#p73ebcb5817)" style="fill: none; stroke: #1f77b4; stroke-width: 1.5"/>
    <path d="M 241.466441 129.425095 
L 241.912328 129.840568 
" clip-path="url(#p73ebcb5817)" style="fill: none; stroke: #1f77b4; stroke-width: 1.5"/>
    <path d="M 287.376741 183.499505 
L 300.638886 179.412502 
" clip-path="url(#p73ebcb5817)" style="fill: none; stroke: #1f77b4; stroke-width: 1.5"/>
    <path d="M 286.796083 183.139788 
L 263.920203 157.01287 
" clip-path="url(#p73ebcb5817)" style="fill: none; stroke: #1f77b4; stroke-width: 1.5"/>
    <path d="M 223.554885 142.163319 
L 223.86383 141.507189 
" clip-path="url(#p73ebcb5817)" style="fill: none; stroke: #1f77b4; stroke-width: 1.5"/>
    <path d="M 222.916037 141.890132 
L 223.236719 141.210125 
" clip-path="url(#p73ebcb5817)" style="fill: none; stroke: #1f77b4; stroke-width: 1.5"/>
    <path d="M 223.160925 141.857862 
L 223.122658 141.157166 
" clip-path="url(#p73ebcb5817)" style="fill: none; stroke: #1f77b4; stroke-width: 1.5"/>
    <path d="M 223.413998 141.971522 
L 223.958116 141.552276 
" clip-path="url(#p73ebcb5817)" style="fill: none; stroke: #1f77b4; stroke-width: 1.5"/>
    <path d="M 97.821109 255.51967 
L 97.673762 255.41115 
" clip-path="url(#p73ebcb5817)" style="fill: none; stroke: #1f77b4; stroke-width: 1.5"/>
    <path d="M 97.798622 255.451422 
L 97.606992 255.708214 
" clip-path="url(#p73ebcb5817)" style="fill: none; stroke: #1f77b4; stroke-width: 1.5"/>
    <path d="M 97.78013 255.305428 
L 98.209053 254.72249 
" clip-path="url(#p73ebcb5817)" style="fill: none; stroke: #1f77b4; stroke-width: 1.5"/>
    <path d="M 97.651423 255.74159 
L 97.509304 255.634956 
" clip-path="url(#p73ebcb5817)" style="fill: none; stroke: #1f77b4; stroke-width: 1.5"/>
    <path d="M 97.672825 255.225859 
L 97.992668 254.792104 
" clip-path="url(#p73ebcb5817)" style="fill: none; stroke: #1f77b4; stroke-width: 1.5"/>
    <path d="M 97.887928 254.934195 
L 96.408888 253.324937 
" clip-path="url(#p73ebcb5817)" style="fill: none; stroke: #1f77b4; stroke-width: 1.5"/>
    <path d="M 97.825991 255.339454 
L 97.554129 255.137768 
" clip-path="url(#p73ebcb5817)" style="fill: none; stroke: #1f77b4; stroke-width: 1.5"/>
    <path d="M 97.478187 255.67718 
L 97.707344 255.365413 
" clip-path="url(#p73ebcb5817)" style="fill: none; stroke: #1f77b4; stroke-width: 1.5"/>
    <path d="M 99.58276 253.51888 
L 98.228285 254.388993 
" clip-path="url(#p73ebcb5817)" style="fill: none; stroke: #1f77b4; stroke-width: 1.5"/>
    <path d="M 99.58276 253.51888 
L 96.478222 252.941993 
" clip-path="url(#p73ebcb5817)" style="fill: none; stroke: #1f77b4; stroke-width: 1.5"/>
    <path d="M 97.967173 254.680526 
L 98.124531 255.11259 
" clip-path="url(#p73ebcb5817)" style="fill: none; stroke: #1f77b4; stroke-width: 1.5"/>
    <path d="M 120.178168 231.297188 
L 112.956796 226.718852 
" clip-path="url(#p73ebcb5817)" style="fill: none; stroke: #1f77b4; stroke-width: 1.5"/>
    <path d="M 120.178168 231.297188 
L 120.262789 231.153795 
" clip-path="url(#p73ebcb5817)" style="fill: none; stroke: #1f77b4; stroke-width: 1.5"/>
    <path d="M 120.178168 231.297188 
L 122.948168 228.793289 
" clip-path="url(#p73ebcb5817)" style="fill: none; stroke: #1f77b4; stroke-width: 1.5"/>
    <path d="M 136.608514 229.223466 
L 130.976495 229.118329 
" clip-path="url(#p73ebcb5817)" style="fill: none; stroke: #1f77b4; stroke-width: 1.5"/>
    <path d="M 156.759909 241.428198 
L 156.720607 233.63206 
" clip-path="url(#p73ebcb5817)" style="fill: none; stroke: #1f77b4; stroke-width: 1.5"/>
    <path d="M 248.184231 85.23772 
L 262.572631 90.474659 
" clip-path="url(#p73ebcb5817)" style="fill: none; stroke: #1f77b4; stroke-width: 1.5"/>
    <path d="M 261.982357 90.050077 
L 258.296173 79.691812 
" clip-path="url(#p73ebcb5817)" style="fill: none; stroke: #1f77b4; stroke-width: 1.5"/>
    <path d="M 265.875852 15.842855 
L 265.284492 35.985166 
L 236.437518 79.003217 
" clip-path="url(#p73ebcb5817)" style="fill: none; stroke: #1f77b4; stroke-width: 1.5"/>
    <path d="M 239.605375 118.403673 
L 240.388118 125.166268 
" clip-path="url(#p73ebcb5817)" style="fill: none; stroke: #1f77b4; stroke-width: 1.5"/>
    <path d="M 240.440981 125.214803 
L 240.102448 125.58083 
" clip-path="url(#p73ebcb5817)" style="fill: none; stroke: #1f77b4; stroke-width: 1.5"/>
    <path d="M 201.272683 133.756138 
L 204.143035 135.297149 
" clip-path="url(#p73ebcb5817)" style="fill: none; stroke: #1f77b4; stroke-width: 1.5"/>
    <path d="M 239.968515 125.725654 
L 239.628503 126.093243 
" clip-path="url(#p73ebcb5817)" style="fill: none; stroke: #1f77b4; stroke-width: 1.5"/>
    <path d="M 239.662134 118.281426 
L 239.605375 118.403673 
" clip-path="url(#p73ebcb5817)" style="fill: none; stroke: #1f77b4; stroke-width: 1.5"/>
    <path d="M 202.788658 134.538419 
L 213.027137 116.182721 
" clip-path="url(#p73ebcb5817)" style="fill: none; stroke: #1f77b4; stroke-width: 1.5"/>
    <path d="M 196.279709 142.779502 
L 197.68907 140.238649 
" clip-path="url(#p73ebcb5817)" style="fill: none; stroke: #1f77b4; stroke-width: 1.5"/>
    <path d="M 197.861763 139.927533 
L 201.272683 133.756138 
" clip-path="url(#p73ebcb5817)" style="fill: none; stroke: #1f77b4; stroke-width: 1.5"/>
    <path d="M 239.561043 126.031631 
L 240.388118 125.166268 
" clip-path="url(#p73ebcb5817)" style="fill: none; stroke: #1f77b4; stroke-width: 1.5"/>
    <path d="M 226.60518 112.887693 
L 241.101724 113.038827 
" clip-path="url(#p73ebcb5817)" style="fill: none; stroke: #1f77b4; stroke-width: 1.5"/>
    <path d="M 209.058046 165.355837 
L 190.980206 155.243433 
L 196.835366 139.76781 
" clip-path="url(#p73ebcb5817)" style="fill: none; stroke: #1f77b4; stroke-width: 1.5"/>
    <path d="M 235.452495 78.624113 
L 226.485054 79.135484 
L 197.007024 139.457474 
" clip-path="url(#p73ebcb5817)" style="fill: none; stroke: #1f77b4; stroke-width: 1.5"/>
    <path d="M 197.789274 209.024813 
L 194.785481 207.397012 
" clip-path="url(#p73ebcb5817)" style="fill: none; stroke: #1f77b4; stroke-width: 1.5"/>
    <path d="M 198.981658 209.524669 
L 207.311977 233.531933 
" clip-path="url(#p73ebcb5817)" style="fill: none; stroke: #1f77b4; stroke-width: 1.5"/>
    <path d="M 202.038906 179.284138 
L 193.848192 206.983621 
" clip-path="url(#p73ebcb5817)" style="fill: none; stroke: #1f77b4; stroke-width: 1.5"/>
    <path d="M 224.068232 141.552926 
L 226.840353 138.661465 
" clip-path="url(#p73ebcb5817)" style="fill: none; stroke: #1f77b4; stroke-width: 1.5"/>
    <path d="M 258.296173 79.691812 
L 235.283204 130.440551 
" clip-path="url(#p73ebcb5817)" style="fill: none; stroke: #1f77b4; stroke-width: 1.5"/>
    <path d="M 266.233468 16.485453 
L 275.955149 30.25761 
L 258.360674 78.680845 
" clip-path="url(#p73ebcb5817)" style="fill: none; stroke: #1f77b4; stroke-width: 1.5"/>
    <path d="M 237.061326 182.015812 
L 237.230617 181.79181 
" clip-path="url(#p73ebcb5817)" style="fill: none; stroke: #1f77b4; stroke-width: 1.5"/>
    <path d="M 150.497771 213.997022 
L 162.706593 215.336738 
L 171.848897 197.800274 
L 193.848192 206.983621 
" clip-path="url(#p73ebcb5817)" style="fill: none; stroke: #1f77b4; stroke-width: 1.5"/>
    <path d="M 324.662029 209.561298 
L 322.959404 208.568678 
" clip-path="url(#p73ebcb5817)" style="fill: none; stroke: #1f77b4; stroke-width: 1.5"/>
    <path d="M 314.402099 209.342891 
L 315.829853 206.421438 
" clip-path="url(#p73ebcb5817)" style="fill: none; stroke: #1f77b4; stroke-width: 1.5"/>
    <path d="M 274.381921 214.903828 
L 273.971885 212.73063 
" clip-path="url(#p73ebcb5817)" style="fill: none; stroke: #1f77b4; stroke-width: 1.5"/>
    <path d="M 94.081371 235.329475 
L 96.428416 236.400493 
" clip-path="url(#p73ebcb5817)" style="fill: none; stroke: #1f77b4; stroke-width: 1.5"/>
    <path d="M 96.428416 236.400493 
L 98.460647 237.339829 
" clip-path="url(#p73ebcb5817)" style="fill: none; stroke: #1f77b4; stroke-width: 1.5"/>
    <path d="M 236.437518 79.003217 
L 235.452495 78.624113 
" clip-path="url(#p73ebcb5817)" style="fill: none; stroke: #1f77b4; stroke-width: 1.5"/>
    <path d="M 197.007024 139.457474 
L 209.026683 113.296725 
L 203.861607 110.85652 
" clip-path="url(#p73ebcb5817)" style="fill: none; stroke: #1f77b4; stroke-width: 1.5"/>
    <path d="M 204.143035 135.297149 
L 209.451365 138.139359 
" clip-path="url(#p73ebcb5817)" style="fill: none; stroke: #1f77b4; stroke-width: 1.5"/>
    <path d="M 258.360674 78.680845 
L 258.296173 79.691812 
" clip-path="url(#p73ebcb5817)" style="fill: none; stroke: #1f77b4; stroke-width: 1.5"/>
    <path d="M 288.229163 104.39164 
L 288.603793 104.185464 
" clip-path="url(#p73ebcb5817)" style="fill: none; stroke: #1f77b4; stroke-width: 1.5"/>
    <path d="M 77.587608 313.559551 
L 77.560289 313.461115 
" clip-path="url(#p73ebcb5817)" style="fill: none; stroke: #1f77b4; stroke-width: 1.5"/>
    <path d="M 226.856873 166.631338 
L 228.188023 166.211375 
" clip-path="url(#p73ebcb5817)" style="fill: none; stroke: #1f77b4; stroke-width: 1.5"/>
    <path d="M 195.258391 148.115006 
L 198.264058 150.432638 
" clip-path="url(#p73ebcb5817)" style="fill: none; stroke: #1f77b4; stroke-width: 1.5"/>
    <path d="M 174.671909 136.329846 
L 195.258391 148.115006 
" clip-path="url(#p73ebcb5817)" style="fill: none; stroke: #1f77b4; stroke-width: 1.5"/>
    <path d="M 195.258391 148.115006 
L 174.671909 136.329846 
" clip-path="url(#p73ebcb5817)" style="fill: none; stroke: #1f77b4; stroke-width: 1.5"/>
   </g>
  </g>
 </g>
 <defs>
  <clipPath id="p73ebcb5817">
   <rect x="0" y="0.147141" width="460.8" height="345.305718"/>
  </clipPath>
 </defs>
</svg>
